HIERARCHY
ROOT hip
{
  OFFSET 0 0 0
  CHANNELS 6 Xposition Yposition Zposition Zrotation Yrotation Xrotation
  JOINT abdomen
  {
    OFFSET 0 20.6881 -0.73152
    CHANNELS 3 Zrotation Xrotation Yrotation
    JOINT chest
    {
      OFFSET 0 11.7043 -0.48768
      CHANNELS 3 Zrotation Xrotation Yrotation
      JOINT neck
      {
        OFFSET 0 22.1894 -2.19456
        CHANNELS 3 Zrotation Xrotation Yrotation
        JOINT head
        {
          OFFSET -0.24384 7.07133 1.2192
          CHANNELS 3 Zrotation Xrotation Yrotation
          JOINT leftEye
          {
            OFFSET 4.14528 8.04674 8.04672
            CHANNELS 3 Zrotation Xrotation Yrotation
            End Site
            {
              OFFSET 1 0 0
            }
          }
          JOINT rightEye
          {
            OFFSET -3.6576 8.04674 8.04672
            CHANNELS 3 Zrotation Xrotation Yrotation
            End Site
            {
              OFFSET 1 0 0
            }
          }
        }
      }
      JOINT rCollar
      {
        OFFSET -2.68224 19.2634 -4.8768
        CHANNELS 3 Zrotation Xrotation Yrotation
        JOINT rShldr
        {
          OFFSET -8.77824 -1.95073 1.46304
          CHANNELS 3 Zrotation Xrotation Yrotation
          JOINT rForeArm
          {
            OFFSET -28.1742 -1.7115 0.48768
            CHANNELS 3 Zrotation Xrotation Yrotation
            JOINT rHand
            {
              OFFSET -22.5879 0.773209 7.07136
              CHANNELS 3 Zrotation Xrotation Yrotation
              JOINT rThumb1
              {
                OFFSET -1.2192 -0.487915 3.41376
                CHANNELS 3 Zrotation Xrotation Yrotation
                JOINT rThumb2
                {
                  OFFSET -3.37035 -0.52449 3.41376
                  CHANNELS 3 Zrotation Xrotation Yrotation
                  End Site
                  {
                    OFFSET -1.78271 -1.18214 1.43049
                  }
                }
              }
              JOINT rIndex1
              {
                OFFSET -7.75947 0.938293 5.60832
                CHANNELS 3 Zrotation Xrotation Yrotation
                JOINT rIndex2
                {
                  OFFSET -2.54057 -0.884171 1.56538
                  CHANNELS 3 Zrotation Xrotation Yrotation
                  End Site
                  {
                    OFFSET -1.62519 -0.234802 1.16502
                  }
                }
              }
              JOINT rMid1
              {
                OFFSET -8.24714 1.18213 3.41376
                CHANNELS 3 Zrotation Xrotation Yrotation
                JOINT rMid2
                {
                  OFFSET -3.10165 -0.590103 1.0647
                  CHANNELS 3 Zrotation Xrotation Yrotation
                  End Site
                  {
                    OFFSET -2.48547 -0.328903 0.83742
                  }
                }
              }
              JOINT rRing1
              {
                OFFSET -8.82822 0.546677 1.51678
                CHANNELS 3 Zrotation Xrotation Yrotation
                JOINT rRing2
                {
                  OFFSET -2.60934 -0.819778 -0.0198488
                  CHANNELS 3 Zrotation Xrotation Yrotation
                  End Site
                  {
                    OFFSET -2.33842 -0.294052 0.168128
                  }
                }
              }
              JOINT rPinky1
              {
                OFFSET -8.27202 -0.0477905 -0.4584
                CHANNELS 3 Zrotation Xrotation Yrotation
                JOINT rPinky2
                {
                  OFFSET -1.82734 -0.647385 -0.700984
                  CHANNELS 3 Zrotation Xrotation Yrotation
                  End Site
                  {
                    OFFSET -1.69225 -0.51767 -0.607171
                  }
                }
              }
            }
          }
        }
      }
      JOINT lCollar
      {
        OFFSET 2.68224 19.2634 -4.8768
        CHANNELS 3 Zrotation Xrotation Yrotation
        JOINT lShldr
        {
          OFFSET 8.77824 -1.95073 1.46304
          CHANNELS 3 Zrotation Xrotation Yrotation
          JOINT lForeArm
          {
            OFFSET 28.1742 -1.7115 0.48768
            CHANNELS 3 Zrotation Xrotation Yrotation
            JOINT lHand
            {
              OFFSET 22.5879 0.773209 7.07136
              CHANNELS 3 Zrotation Xrotation Yrotation
              JOINT lThumb1
              {
                OFFSET 1.2192 -0.487915 3.41376
                CHANNELS 3 Zrotation Xrotation Yrotation
                JOINT lThumb2
                {
                  OFFSET 3.37035 -0.52449 3.41376
                  CHANNELS 3 Zrotation Xrotation Yrotation
                  End Site
                  {
                    OFFSET 1.78271 -1.18214 1.43049
                  }
                }
              }
              JOINT lIndex1
              {
                OFFSET 7.75947 0.938293 5.60832
                CHANNELS 3 Zrotation Xrotation Yrotation
                JOINT lIndex2
                {
                  OFFSET 2.54057 -0.884171 1.56538
                  CHANNELS 3 Zrotation Xrotation Yrotation
                  End Site
                  {
                    OFFSET 1.62519 -0.234802 1.16502
                  }
                }
              }
              JOINT lMid1
              {
                OFFSET 8.24714 1.18213 3.41376
                CHANNELS 3 Zrotation Xrotation Yrotation
                JOINT lMid2
                {
                  OFFSET 3.10165 -0.590103 1.0647
                  CHANNELS 3 Zrotation Xrotation Yrotation
                  End Site
                  {
                    OFFSET 2.48547 -0.328903 0.83742
                  }
                }
              }
              JOINT lRing1
              {
                OFFSET 8.82822 0.546677 1.51678
                CHANNELS 3 Zrotation Xrotation Yrotation
                JOINT lRing2
                {
                  OFFSET 2.60934 -0.819778 -0.0198488
                  CHANNELS 3 Zrotation Xrotation Yrotation
                  End Site
                  {
                    OFFSET 2.33842 -0.294052 0.168128
                  }
                }
              }
              JOINT lPinky1
              {
                OFFSET 8.27202 -0.0477905 -0.4584
                CHANNELS 3 Zrotation Xrotation Yrotation
                JOINT lPinky2
                {
                  OFFSET 1.82734 -0.647385 -0.700984
                  CHANNELS 3 Zrotation Xrotation Yrotation
                  End Site
                  {
                    OFFSET 1.69225 -0.51767 -0.607171
                  }
                }
              }
            }
          }
        }
      }
    }
  }
  JOINT rButtock
  {
    OFFSET -8.77824 4.35084 1.2192
    CHANNELS 3 Zrotation Xrotation Yrotation
    JOINT rThigh
    {
      OFFSET 0 -1.70687 -2.19456
      CHANNELS 3 Zrotation Xrotation Yrotation
      JOINT rShin
      {
        OFFSET 0 -36.8199 0.73152
        CHANNELS 3 Zrotation Xrotation Yrotation
        JOINT rFoot
        {
          OFFSET 0.73152 -45.1104 -5.12064
          CHANNELS 3 Zrotation Xrotation Yrotation
          End Site
          {
            OFFSET -1.1221 -3.69964 12.103
          }
        }
      }
    }
  }
  JOINT lButtock
  {
    OFFSET 8.77824 4.35084 1.2192
    CHANNELS 3 Zrotation Xrotation Yrotation
    JOINT lThigh
    {
      OFFSET 0 -1.70687 -2.19456
      CHANNELS 3 Zrotation Xrotation Yrotation
      JOINT lShin
      {
        OFFSET 0 -36.8199 0.73152
        CHANNELS 3 Zrotation Xrotation Yrotation
        JOINT lFoot
        {
          OFFSET -0.73152 -45.1104 -5.12064
          CHANNELS 3 Zrotation Xrotation Yrotation
          End Site
          {
            OFFSET 1.1221 -3.69964 12.103
          }
        }
      }
    }
  }
}
MOTION
Frames:	4
Frame Time:	0.00833333
47.7991 88.4821 37.2654 359.68 -47.6694 6.5155 -1.59053 -1.99063 -9.34124 0.503596 -11.3619 -2.6146 -7.95255 23.0432 -14.3316 22.9666 -22.7065 -25.0696 -0.0 0.0 0.0 -0.0 0.0 0.0 -1.63518e-13 -8.37318e-13 -6.81881e-13 39.1234 -49.3171 68.8215 -26.1961 -23.9519 57.6175 0.000295897 -0.523991 -0.0737257 2.0682e-09 -2.87724e-09 -1.89548e-09 3.56962e-09 -4.97691e-09 -3.27977e-09 2.06821e-09 -2.87724e-09 -1.89548e-09 7.73091 5.47488 0.417314 2.0682e-09 -2.87723e-09 -1.89548e-09 2.90554 0.965183 0.102902 2.06821e-09 -2.87724e-09 -1.89548e-09 10.2786 0.731801 0.0259123 2.0682e-09 -2.87723e-09 -1.89547e-09 2.22167 -0.733487 -0.20892 -1.63545e-13 -8.37315e-13 -6.82123e-13 -149.589 71.6505 71.5537 26.8515 -44.4015 -92.2462 0.022051 -4.23524 0.596323 -7.61156e-10 3.27388e-09 -1.52331e-09 -1.29841e-09 5.6902e-09 -2.64207e-09 -7.61163e-10 3.27388e-09 -1.52331e-09 -7.73091 5.47488 -0.417314 -7.61156e-10 3.27387e-09 -1.52331e-09 -2.90554 0.965183 -0.102902 -7.61167e-10 3.27387e-09 -1.5233e-09 -10.2786 0.731801 -0.0259123 -7.6115e-10 3.27388e-09 -1.52331e-09 -2.22167 -0.733487 0.20892 -2.03217e-16 0.0 -3.88251e-19 1.45499 -29.9998 -10.8159 -0.246694 37.9637 0.611139 -0.795775 3.86558 21.3314 2.03217e-16 0.0 3.88251e-19 -3.07442 -29.7565 -20.6731 0.482116 45.6675 -0.850088 0.661424 6.30296 -11.747
48.8155 88.2099 37.3205 358.96 -59.5685 7.1614 -2.05996 -2.33384 -8.41905 0.0157222 -11.2299 -2.41805 -8.17864 22.2144 -13.0501 23.5124 -21.8864 -22.7214 -0.0 0.0 0.0 -0.0 0.0 0.0 -1.65207e-13 -9.28973e-13 -8.96817e-13 33.4663 -46.4262 65.7009 -26.1298 -23.7722 57.3105 -7.38654e-07 -0.0245586 -0.00345149 3.01325e-09 -1.90624e-09 -2.85035e-09 5.20456e-09 -3.29767e-09 -4.92928e-09 3.01325e-09 -1.90624e-09 -2.85036e-09 7.73091 5.47488 0.417314 3.01325e-09 -1.90624e-09 -2.85035e-09 2.90554 0.965183 0.102902 3.01326e-09 -1.90624e-09 -2.85035e-09 10.2786 0.731801 0.0259123 3.01325e-09 -1.90624e-09 -2.85035e-09 2.22167 -0.733487 -0.20892 -1.65234e-13 -9.28968e-13 -8.97066e-13 -150.747 72.6334 72.8959 26.8443 -44.42 -92.2831 0.025116 -4.51939 0.636493 -8.30595e-10 3.12325e-09 -2.16477e-09 -1.41107e-09 5.43334e-09 -3.75569e-09 -8.30603e-10 3.12325e-09 -2.16477e-09 -7.73091 5.47488 -0.417314 -8.30596e-10 3.12323e-09 -2.16477e-09 -2.90554 0.965183 -0.102902 -8.3061e-10 3.12324e-09 -2.16477e-09 -10.2786 0.731801 -0.0259123 -8.3059e-10 3.12324e-09 -2.16477e-09 -2.22167 -0.733487 0.20892 -2.03217e-16 0.0 -3.88251e-19 1.59676 -30.0351 -11.1167 -0.242163 37.2438 0.55605 0.0856187 1.41059 19.5765 2.03217e-16 0.0 3.88251e-19 -2.73732 -29.1021 -19.8197 0.470377 45.2331 -0.835444 0.865686 7.41442 -10.8754
49.9415 87.8049 37.558 359.194 -72.0282 6.9438 -3.39744 -2.40466 -7.38193 -0.317946 -11.311 -2.17759 -8.51843 21.2256 -11.6221 24.5171 -20.9619 -20.04 -0.0 0.0 0.0 -0.0 0.0 0.0 -1.03362e-13 -8.94745e-13 -8.0724e-13 28.4489 -43.8199 64.1671 -26.2497 -24.0943 57.7973 -0.0145317 -0.762126 -0.112081 2.92457e-09 -1.35381e-09 -2.63397e-09 5.05228e-09 -2.34238e-09 -4.55245e-09 2.92457e-09 -1.35381e-09 -2.63398e-09 7.73091 5.47488 0.417314 2.92457e-09 -1.35381e-09 -2.63397e-09 2.90554 0.965183 0.102902 2.92458e-09 -1.35381e-09 -2.63397e-09 10.2786 0.731801 0.0259123 2.92457e-09 -1.35381e-09 -2.63396e-09 2.22167 -0.733487 -0.20892 -1.03426e-13 -8.94736e-13 -8.07471e-13 -151.382 73.5046 73.7313 26.853 -44.3966 -92.2379 0.0289752 -4.86911 0.685958 -5.50319e-10 2.01763e-09 -1.97317e-09 -9.27995e-10 3.52139e-09 -3.42416e-09 -5.50325e-10 2.01762e-09 -1.97317e-09 -7.73091 5.47488 -0.417314 -5.50319e-10 2.01761e-09 -1.97317e-09 -2.90554 0.965183 -0.102902 -5.50332e-10 2.01762e-09 -1.97317e-09 -10.2786 0.731801 -0.0259123 -5.50313e-10 2.01762e-09 -1.97317e-09 -2.22167 -0.733487 0.20892 -2.03217e-16 0.0 -3.88251e-19 1.08143 -30.0658 -11.4503 -0.257101 37.4961 0.534233 0.96871 -1.48831 17.7316 2.03217e-16 0.0 3.88251e-19 -2.00435 -28.4217 -14.983 0.458567 44.7412 -0.808841 0.695108 7.04784 -7.94949
50.9985 87.3704 37.508 360.139 -84.9225 5.8068 -5.35752 -2.30382 -6.27861 -0.569281 -11.5544 -1.91219 -8.90834 20.0281 -9.98837 25.8197 -19.8831 -16.9068 -0.0 0.0 0.0 -0.0 0.0 0.0 1.95238e-15 -7.75557e-13 -5.38408e-13 23.2931 -41.4109 63.3119 -26.496 -24.7844 58.8919 -0.0475718 -2.26846 -0.332362 2.26565e-09 -8.85255e-10 -1.75588e-09 3.91431e-09 -1.5322e-09 -3.03056e-09 2.26566e-09 -8.85252e-10 -1.7559e-09 7.73091 5.47488 0.417314 2.26565e-09 -8.85254e-10 -1.75588e-09 2.90554 0.965183 0.102902 2.26566e-09 -8.85254e-10 -1.75589e-09 10.2786 0.731801 0.0259123 2.26565e-09 -8.85253e-10 -1.75588e-09 2.22167 -0.733487 -0.20892 1.82456e-15 -7.75542e-13 -5.3861e-13 -151.777 74.3521 74.3602 26.8739 -44.3411 -92.1297 0.0341758 -5.28733 0.745199 -3.65306e-11 1.43501e-10 -1.30122e-09 -4.62728e-11 2.77051e-10 -2.25947e-09 -3.65345e-11 1.43484e-10 -1.30121e-09 -7.73091 5.47488 -0.417314 -3.65307e-11 1.43489e-10 -1.30122e-09 -2.90554 0.965183 -0.102902 -3.65407e-11 1.43495e-10 -1.30122e-09 -10.2786 0.731801 -0.0259123 -3.65241e-11 1.43497e-10 -1.30123e-09 -2.22167 -0.733487 0.20892 -2.03217e-16 0.0 -3.88251e-19 0.154451 -30.1344 -11.7081 -0.285336 38.437 0.532287 1.78624 -4.85084 15.789 2.03217e-16 0.0 3.88251e-19 -1.25977 -27.2949 -7.31891 0.449184 44.2997 -0.777363 0.464596 5.66176 -3.29647
